<svg xmlns="http://www.w3.org/2000/svg" xmlns:xlink="http://www.w3.org/1999/xlink">
  <defs>
    <symbol id="боевик" name="action" viewBox="0 0 512 512" xmlns="http://www.w3.org/2000/svg">
      <path fill="#c1c1c1" d="M79.238 115.768l-28.51 67.863h406.15l-.273-67.862h-263.83v55.605h-15v-55.605h-16.68v55.605H146.1v-55.605h-17.434v55.605h-15v-55.605H79.238zm387.834 15.96v40.66h18.688v-40.66h-18.688zM56.768 198.63l20.566 32.015L28.894 406.5l101.68 7.174 21.54-97.996h115.74l14.664-80.252 174.55-3.873-.13-32.922H56.767zM263.44 235.85l-11.17 61.142h-96.05l12.98-59.05 12.53-.278-2.224 35.5 14.262 13.576 1.003-33.65 24.69-16.264 43.98-.976z"/>
    </symbol>
    <symbol id="комедия" name="comedy" viewBox="0 0 800 675" xmlns="http://www.w3.org/2000/svg">
      <path d="M534.76 39.8516C388.28 39.8516 269.52 -71.0784 269.52 77.3402C269.52 105.035 273.649 137.136 281.303 171.049C320.327 168.657 357.992 158.133 391.729 148.767C424.51 139.628 452.834 131.748 479.094 131.748C510.968 131.748 547.399 143.354 563.537 190.863C563.588 190.712 563.638 190.385 563.638 190.385H681.517C682.65 194.992 683.43 197.686 683.43 201.538C683.43 227.395 656.189 248.368 622.603 248.368C600.724 248.368 581.589 239.505 570.839 226.212C571.594 233.74 571.997 241.822 571.997 250.558C571.997 277.221 568.623 307.483 562.228 339.584C596.016 350.486 622.452 379.011 629.476 415.266L603.191 406.102C595.009 385.381 578.064 369.318 557.344 361.966C546.744 406.656 530.631 453.863 509.759 498.829C517.992 500.516 526.3 501.498 534.76 501.498C681.24 501.498 800 225.759 800 77.315C800 -71.1287 681.265 39.8516 534.76 39.8516Z" />
      <path d="M396.463 190.536C392.887 191.518 389.262 192.525 385.586 193.532C349.457 203.351 308.57 213.019 265.265 213.019C118.76 213.044 0 102.19 0 250.609C0 399.002 118.76 674.741 265.265 674.741C411.72 674.741 530.48 399.002 530.48 250.609C530.48 150.53 476.5 168.305 396.463 190.536ZM116.897 391.902C115.789 389.586 114.983 385.079 114.983 381.177C114.983 355.37 142.225 334.725 175.836 334.725C209.448 334.725 236.689 355.244 236.689 381.177C236.689 384.978 235.909 389.586 234.776 391.902H116.897ZM265.265 579.496C212.998 579.496 169.567 540.799 159.975 492.711H370.555C360.913 540.799 317.507 579.496 265.265 579.496ZM411.972 391.902H294.143C293.01 389.586 292.23 385.079 292.23 381.177C292.23 355.37 319.471 334.725 353.083 334.725C386.694 334.725 413.935 355.244 413.935 381.177C413.885 385.079 413.13 389.636 411.972 391.902Z" />
    </symbol>
    <symbol id="детектив" name="detective" viewBox="0 0 256 256" xmlns="http://www.w3.org/2000/svg">
      <rect fill="none" height="256" width="256"/>
      <path d="M216,180a36,36,0,0,1-71.1,8H111.1a36,36,0,1,1,0-16h33.8a36,36,0,0,1,71.1,8Zm32-68H220.2L173.3,45a16.1,16.1,0,0,0-26.5.3L128,73.6,109.2,45.3A16.1,16.1,0,0,0,82.7,45L35.8,112H8a8,8,0,0,0,0,16H248a8,8,0,0,0,0-16Z"/>
    </symbol>
    <symbol id="драма" name="drama" viewBox="0 0 801 676" xmlns="http://www.w3.org/2000/svg">
      <path fill-rule="evenodd" clip-rule="evenodd" d="M661.626 18.6181C663.248 18.1702 664.861 17.7252 666.463 17.2852C668.589 16.6946 670.697 16.1071 672.786 15.5249C749.33 -5.80737 800.48 -20.0623 800.48 77.3576C800.48 222.816 686.372 490.631 543.923 501.169C541.043 501.122 538.057 501.098 534.962 501.098C526.383 501.098 517.899 500.152 509.529 498.342L509.456 498.081C523.487 467.854 535.367 436.614 544.868 405.806C592.756 401.414 631.51 364.569 640.555 319.46H565.455C569.555 294.554 571.694 271.041 571.694 249.81C571.694 243.959 571.513 238.402 571.167 233.108C571.167 232.327 571.183 231.704 571.197 231.161C571.245 229.306 571.268 228.409 570.536 225.464C570.536 225.464 570.075 222.349 569.524 218.651H681.972C683.13 216.385 683.885 211.828 683.935 207.926C683.935 181.993 656.694 161.474 623.083 161.474C595.41 161.474 572.055 175.468 564.666 194.815L563.335 189.637C563.335 189.637 563.285 189.965 563.234 190.116C547.096 142.607 510.665 131 478.791 131C452.531 131 424.207 138.88 391.426 148.02L390.627 148.242C357.274 157.501 320.117 167.817 281.623 170.262C274.066 136.636 270 104.817 270 77.3576C270 -20.0139 321.116 -5.79046 397.648 15.505C437.769 26.6691 484.876 39.777 535.265 39.7683C578.57 39.7683 619.457 30.1003 655.586 20.2813C657.615 19.7255 659.628 19.1697 661.626 18.6181ZM570.536 225.464L571.167 228.807V233.108C570.996 230.497 570.785 227.951 570.536 225.464Z" />
      <path fill-rule="evenodd" clip-rule="evenodd" d="M391.629 192.617C393.25 192.17 394.862 191.725 396.463 191.285C398.589 190.695 400.697 190.107 402.786 189.525C479.33 168.193 530.48 153.938 530.48 251.358C530.48 399.751 411.72 675.49 265.265 675.49C118.76 675.49 0 399.751 0 251.358C0 153.986 51.1161 168.21 127.648 189.505C167.769 200.669 214.876 213.777 265.265 213.768C308.57 213.768 349.457 204.1 385.586 194.281C387.616 193.725 389.63 193.169 391.629 192.617ZM234.706 346.225C234.706 342.323 233.9 337.816 232.793 335.5L114.914 335.5C113.781 337.816 113 342.423 113 346.225C113 372.157 140.242 392.677 173.853 392.677C207.465 392.677 234.706 372.032 234.706 346.225ZM409.793 335.5C410.9 337.816 411.706 342.323 411.706 346.225C411.706 372.032 384.465 392.677 350.853 392.677C317.242 392.677 290 372.157 290 346.225C290 342.423 290.781 337.816 291.914 335.5L409.793 335.5ZM264.98 450C203.345 450 151.571 489.896 137 543.851L169.979 534.518C186.267 500.275 222.678 476.43 264.982 476.43C307.353 476.43 343.811 500.349 360.061 534.678L393 544C378.484 489.97 326.671 450 264.98 450Z" />
    </symbol>
    <symbol id="семейный" name="family" baseProfile="tiny" xmlns="http://www.w3.org/2000/svg" xmlns:xlink="http://www.w3.org/1999/xlink"
	    viewBox="0 0 256 256" xml:space="preserve">
      <path id="XMLID_4_" d="M223.9,123.1c6.4,0,11.5-5.2,11.5-11.6c0-6.4-5.2-11.6-11.5-11.6c-6.4,0-11.6,5.2-11.6,11.6
	      C212.3,117.9,217.5,123.1,223.9,123.1"/>
      <path id="XMLID_3_" d="M144.5,59.4c9.1,0,16.5-7.4,16.5-16.5c0-9.1-7.4-16.5-16.5-16.5c-9.1,0-16.5,7.4-16.5,16.5
	      C128,52,135.4,59.4,144.5,59.4"/>
      <path id="XMLID_2_" d="M51.9,59.5c9.2,0,16.7-7.4,16.7-16.6c0-9.2-7.5-16.6-16.7-16.6c-9.2,0-16.7,7.4-16.7,16.6
	      C35.1,52.1,42.6,59.5,51.9,59.5"/>
      <path id="XMLID_1_" d="M208.2,222.9c0,3.7,3.1,6.8,6.8,6.8c3.7,0,6.8-3,6.8-6.8v-40.5h5.3v40.5c0,3.7,3,6.8,6.8,6.8
	      c3.7,0,6.8-3,6.8-6.8v-75.8h5.2v25.7c0,2.8,2.3,5.1,5,5.1c2.8,0,5-2.3,5-5.1v-29.2c0-8.2-7.2-14.8-15.4-14.8c0,0-31.4,0-31.5,0
	      l-10.1-1l-13-45.5c-5.3-18.3-20.6-17.8-20.6-17.8h-42.3c0,0-15.3-0.6-20.6,17.8l-6.8,23.8l-6.8-23.8C83.5,64,68.2,64.6,68.2,64.6
	      H35.5c0,0-15.4-0.6-20.6,17.8L1.7,128.2c-1.3,4.3,0.8,8.3,4.6,9.4c3.7,1.1,7.8-1.5,8.8-5l12.8-44.7h6.3l-18.7,77.4H32v55
	      c0,4.5,3.6,8.2,8.2,8.2c4.5,0,8.2-3.7,8.2-8.2v-55h6.9v55c0,4.5,3.7,8.2,8.2,8.2c4.5,0,8.2-3.7,8.2-8.2v-55H88L69.5,87.9h6.2
	      l12.8,44.7c0.9,3,3.6,5.4,6.8,5.1c3.2,0.3,6.5-2.1,7.3-5.1l12.8-44.7h5.8v130.8c0,5.3,4.4,9.6,9.7,9.6c5.3,0,9.7-4.3,9.7-9.6v-74.4
	      h7.1v74.4c0,5.3,4.3,9.6,9.7,9.6c5.3,0,9.7-4.3,9.7-9.6V87.9h6.3l11.9,43.2c0.7,2.6,3.4,5.1,6.3,6l16.6,4.6V222.9z"/>
    </symbol>
    <symbol id="фэнтези" name="fantasy" xmlns="http://www.w3.org/2000/svg" xmlns:xlink="http://www.w3.org/1999/xlink"
	    viewBox="0 0 512 512"  xml:space="preserve">
      <g>
	      <path class="st0" d="M461.046,372.68l24.61-2.894c-21.101-24.89-42.748-42.21-62.228-54.114l21.646-11.91l-55.204-31.391
		      l37.338-17.858l-64.94-37.338l27.601-17.858l-60.774-21.27c5.808-7.003,8.066-14.216,7.94-20.919l119.494-89.907
		      c3.138-2.362,3.942-6.752,1.86-10.079l-3.621-5.746c-2.222-3.551-6.885-4.613-10.436-2.397l-56.798,35.633l-3.816,19.13
		      l-6.451-52.652c-11.784-13.63-18.83-1.685-18.83-1.685l0.168,54.658l-39.002,26.142c-6.248-3.027-13.014-3.341-18.2,0.489
		      l-37.423,24.086c0,0-41.868-12.302-67.847,6.094c-7.654,5.424-17.313,17.321-60.606,9.737c-4.501-0.79-33.208-3.872-59.174-11.33
		      c-0.965-12.106-10.988-21.668-23.345-21.668c-3.285,0-6.41,0.678-9.254,1.902c-21.836-37.716-60.313-9.373-35.947,33.263
		      l12.029,24.82l7.283,3.271l7.786,3.495c-0.112,12.421,1.86,38.911,19.515,50.94c-0.923-2.74,2.859-23.401,9.31-38.002l3.02,1.356
		      l12.134,5.312c0.657,12.923,4.138,32.529,18.383,42.245c-0.762-2.306,1.964-17.991,6.864-31.187l23.862,10.45
		      c1.965,11.365,6.57,24.065,17.167,31.292c-0.587-1.789,0.922-11.603,3.9-22.066l36.807,16.126c1.328,0.594,2.257,1.852,2.446,3.292
		      l0.783,12.854c0.272,2.118-1.076,4.096-3.159,4.613l-44.083,22.318c-7.039-8.639-13.036-19.458-13.064-21.366
		      c-6.57,8.876-6.263,20.717-4.404,30.209l-18.27,9.254c-8.464-10.666-16.034-26.77-15.866-29.216
		      c-10.023,11.547-8.73,29.076-6.402,40.483l-11.568,5.864c0,0,2.872,4.613,8.01,12.134c6.717,9.862,17.509,28.797,22.192,32.474
		      c9.352,7.318,22.338,15.237,22.338,15.237l-7.269-26.861l20.675,7.129v-16.237c135.192-41.602,168.602,58.6,181.121,94.387H512
		      C503.445,445.169,471.53,387.455,461.046,372.68z"/>
      </g>
    </symbol>
    <symbol id="фантастика" name="fiction" xmlns="http://www.w3.org/2000/svg" xmlns:xlink="http://www.w3.org/1999/xlink"
	    viewBox="0 0 194.49 194.49"
	    xml:space="preserve">
	    <g>
		    <path d="M36.297,120.638l6.524,38.64l18.142-27.203h8.239c-6.275-18.55-10.994-33.706-14.26-45.684L36.297,120.638z"/>
		    <path d="M139.539,86.39c-3.267,11.97-7.979,27.134-14.234,45.684h8.219l18.138,27.203l6.532-38.64L139.539,86.39z"/>
		    <path d="M97.234,154.372c-7.296,0-13.19,5.903-13.19,13.185c0,7.27,13.19,26.934,13.19,26.934s13.19-19.652,13.19-26.934
			    C110.425,160.287,104.51,154.372,97.234,154.372z"/>
		    <path d="M97.24,48.25c-7.796,0-15.229,1.495-22.075,4.194c-0.126,28.042,7.46,61.049,11.281,85.045
			    c-4.803-15.039-20.06-49.854-20.787-80.258c-3.156,1.956-6.141,4.17-8.893,6.65c2.382,17.058,15.072,55.499,25.627,85.659h29.721
			    c10.568-30.172,23.248-68.615,25.624-85.667C126.976,54.202,112.793,48.25,97.24,48.25z"/>
		    <path d="M84.044,13.341c-5.072,7.834-7.582,17.991-8.48,29.304c6.817-2.254,14.11-3.47,21.676-3.47
			    c15.124,0,29.105,4.899,40.543,13.118C134.196,9.311,97.24,0,97.24,0S60.266,9.319,56.685,52.301
			    c2.976-2.136,6.133-4.051,9.429-5.717C67.541,33.161,72.604,21.243,84.044,13.341z"/>
      </g>
    </symbol>
    <symbol id="ужасы" name="horror" version="1.1" xmlns="http://www.w3.org/2000/svg" xmlns:xlink="http://www.w3.org/1999/xlink"
	    viewBox="0 0 263.998 263.998" xml:space="preserve">
      <g>
	      <path d="M244.472,84.316L244.472,84.316c-12.522-14.685-26.504-20.729-41.951-19.668
		      c-11.182,0.77-21.592,5.316-31.201,13.537c-9.808-6.025-20.419-9.515-31.826-10.69c0.537-3.298,1.507-6.502,2.94-9.655
		      c3.565-7.258,9.185-13.139,16.841-17.836c-5.785-3.49-11.577-7.011-17.379-10.602c-16.767,8.358-25.845,21.246-27.292,39.619
		      c-7.837,1.759-15.143,4.626-21.911,8.7c-9.45-7.917-19.589-12.288-30.418-13.026C46.994,63.666,32.92,69.632,20.059,84.11
		      C6.648,99.188,0,118.456,0,140.501c-0.007,6.57,0.696,13.041,2.116,19.323c4.736,23.497,15.879,42.66,33.576,57.073
		      c15.912,13.173,30.835,18.587,44.716,17.512c7.294-0.578,14.049-4.101,20.3-10.511c10.864,5.661,21.027,8.473,30.484,8.459
		      c10.165-0.012,20.868-3.045,32.098-9.176c6.422,6.901,13.37,10.669,20.842,11.274c14.226,1.108,29.509-4.239,45.764-17.366
		      c18.037-14.544,28.919-33.815,32.789-57.219c0.863-5.8,1.313-11.646,1.313-17.497C264,119.432,257.511,99.618,244.472,84.316z
		      M56.51,100.753l41.931,14.948c-4.54,9.086-11.102,13.631-19.656,13.631c-2.622,0-5.069-0.431-7.344-1.313
		      C59.921,122.079,54.931,112.996,56.51,100.753z M155.321,191.19L155.321,191.19l-9.442-8.653l-7.857,13.358
		      c-3.497,0.35-6.822,0.529-9.967,0.529c-4.538,0-8.904-0.272-13.106-0.803l-8.904-15.439L96.609,190.4
		      c-5.063-2.8-9.436-6.038-13.105-9.708c-9.085-8.553-13.802-18.52-14.154-29.874c2.966,1.745,7.658,3.568,14.101,5.473
		      l10.969,14.055l9.735-10.16c4.883,0.724,9.522,1.155,13.887,1.315l11.023,11.857l9.973-12.322c3.669-0.177,7.512-0.53,11.531-1.041
		      l10.234,10.476l11.274-14.672c6.117-1.392,11.544-2.885,16.264-4.459C185.367,168.649,174.354,181.927,155.321,191.19z
		      M180.737,128.809L180.737,128.809c-2.277,0.876-4.806,1.313-7.599,1.313c-8.388,0-14.942-4.553-19.648-13.637l42.183-14.929
		      C197.08,113.778,192.097,122.863,180.737,128.809z"/>
      </g>
    </symbol>
    <symbol id="триллер" name="triller" viewBox="0 0 24 24" xmlns="http://www.w3.org/2000/svg">
      <g>
        <path fill="none" d="M0 0h24v24H0z"/>
        <path d="M4.342 1.408L22.373 19.44a1.5 1.5 0 0 1-2.121 2.122l-4.596-4.597L12.12 20.5 8 16.38V19a1 1 0 0 1-2 0v-4a1 1 0 0 0-1.993-.117L4 15v1a1 1 0 0 1-2 0V7.214a7.976 7.976 0 0 1 2.168-5.627l.174-.179z"/>
      </g>
    </symbol>
    <symbol id="вестерн" name="western" viewBox="0 0 512 512" xmlns="http://www.w3.org/2000/svg">
      <path d="M199.117 111.268c-2.435.007-4.816.524-7.117 1.675-18.365 9.194-38.59 129.65-50.16 164.987 45.64 13.262 87.106 16.556 115.314 16.425 28.21-.13 68.652-3.635 112.97-16.49C358.53 242.48 338.34 122.123 320 112.943c-21.065-10.53-48.73 31.998-64 32-13.6.002-37.05-33.734-56.883-33.675zM224 160c11.53 40.5 9.107 74.724 0 96-9.107 21.276-32 11.235-32 0 25.333-6.927 26.21-35.5 32-96zm64 0c5.79 60.5 6.667 89.073 32 96 0 11.235-22.893 21.276-32 0s-11.53-55.5 0-96zM46.79 263.127c-17.5.4-24.138 17.83-14.79 40.873 11.088 30.345 58.972 96.774 112 96 24.103-.352 31.438-15.483 112-16 80.562-.517 87.88 15.648 112 16 53.017.774 100.907-65.655 112-96 13.006-32.066-4.934-53.25-40.016-32.84-21.85 11.926-44.06 17.898-65.984 24.48-.02 0-.044.024-.064.024v-.006c-45.8 13.756-87.924 17.486-116.754 17.615-28.83.13-72.027-3.357-119.145-17.548-21.897-6.618-44.09-12.59-66.027-24.565-9.866-5.74-18.374-8.19-25.22-8.033z"/>
    </symbol>
    <symbol id="музыка" name="music" viewBox="0 0 256 256" xmlns="http://www.w3.org/2000/svg">
      <rect fill="none" height="256" width="256"/>
      <path d="M212.9,25.7a8,8,0,0,0-6.8-1.5l-128,32A8,8,0,0,0,72,64V174.1A36,36,0,1,0,88,204V110.2l112-28v59.9A36,36,0,1,0,216,172V32A7.8,7.8,0,0,0,212.9,25.7Z"/>
    </symbol>
  </defs>
</svg>
