<svg width="31" height="22" viewBox="0 0 31 22" fill="none" xmlns="http://www.w3.org/2000/svg">
<path d="M20.6001 17.16C19.3714 19.0306 17.6378 20.5146 15.6001 21.44H23.3401L21.1901 17.16H20.6001Z" fill="#00FFFF"/>
<path d="M21.44 10.73C21.442 8.60936 20.8149 6.53578 19.6382 4.77157C18.4615 3.00736 16.7879 1.63179 14.8293 0.818889C12.8707 0.00598419 10.7149 -0.207735 8.63477 0.204769C6.55463 0.617272 4.64358 1.63746 3.14336 3.13628C1.64314 4.6351 0.621164 6.54521 0.206719 8.62496C-0.207725 10.7047 0.00398159 12.8607 0.815058 14.8201C1.62614 16.7795 3.00014 18.4543 4.76325 19.6327C6.52636 20.811 8.59936 21.44 10.72 21.44C12.1273 21.4413 13.5211 21.1653 14.8216 20.6276C16.1222 20.09 17.304 19.3013 18.2996 18.3067C19.2952 17.312 20.0849 16.1309 20.6238 14.8309C21.1626 13.5308 21.44 12.1373 21.44 10.73ZM3.06 8.73001C3.05802 8.41116 3.15076 8.0989 3.32646 7.83283C3.50216 7.56675 3.75291 7.35884 4.04692 7.23545C4.34093 7.11206 4.66496 7.07874 4.97792 7.13973C5.29089 7.20072 5.5787 7.35326 5.80486 7.57802C6.03102 7.80278 6.18536 8.08963 6.24829 8.40221C6.31123 8.71479 6.27994 9.03902 6.15838 9.33379C6.03682 9.62857 5.83047 9.88061 5.5655 10.058C5.30052 10.2353 4.98885 10.33 4.67 10.33C4.24473 10.33 3.83673 10.1618 3.53508 9.86199C3.23343 9.56221 3.06264 9.15527 3.06 8.73001ZM7.01 17.43C6.69115 17.43 6.37948 17.3353 6.1145 17.158C5.84953 16.9806 5.64318 16.7286 5.52162 16.4338C5.40006 16.139 5.36877 15.8148 5.43171 15.5022C5.49464 15.1896 5.64898 14.9028 5.87514 14.678C6.10131 14.4533 6.38911 14.3007 6.70208 14.2397C7.01505 14.1787 7.33907 14.2121 7.63308 14.3354C7.92709 14.4588 8.17784 14.6668 8.35354 14.9328C8.52924 15.1989 8.62198 15.5112 8.62 15.83C8.62 16.041 8.57829 16.2498 8.49726 16.4446C8.41623 16.6394 8.29748 16.8162 8.14784 16.9649C7.99821 17.1136 7.82064 17.2313 7.62537 17.3111C7.43009 17.3909 7.22096 17.4313 7.01 17.43ZM10.76 12.34C10.44 12.348 10.1249 12.2603 9.8549 12.0883C9.58493 11.9163 9.37236 11.6677 9.24434 11.3743C9.11633 11.0809 9.07868 10.756 9.13622 10.4411C9.19375 10.1263 9.34384 9.83565 9.56733 9.60647C9.79082 9.37729 10.0776 9.21993 10.3909 9.1545C10.7043 9.08906 11.03 9.11852 11.3265 9.23912C11.6231 9.35971 11.8769 9.56596 12.0556 9.83152C12.2344 10.0971 12.3299 10.4099 12.33 10.73C12.33 11.157 12.1604 11.5665 11.8584 11.8684C11.5565 12.1704 11.147 12.34 10.72 12.34H10.76ZM10.76 5.91001C10.4416 5.91001 10.1303 5.81558 9.86553 5.63867C9.60077 5.46176 9.39441 5.21031 9.27255 4.91612C9.1507 4.62194 9.11881 4.29822 9.18094 3.98591C9.24306 3.6736 9.3964 3.38673 9.62156 3.16156C9.84672 2.9364 10.1336 2.78306 10.4459 2.72094C10.7582 2.65882 11.0819 2.6907 11.3761 2.81256C11.6703 2.93442 11.9218 3.14077 12.0987 3.40554C12.2756 3.6703 12.37 3.98158 12.37 4.3C12.3701 4.51484 12.3271 4.72752 12.2437 4.92551C12.1603 5.12349 12.0382 5.30279 11.8844 5.45283C11.7306 5.60286 11.5484 5.72061 11.3484 5.79913C11.1484 5.87764 10.9348 5.91534 10.72 5.91001H10.76ZM14.47 17.43C14.1511 17.43 13.8395 17.3353 13.5745 17.158C13.3095 16.9806 13.1032 16.7286 12.9816 16.4338C12.8601 16.139 12.8288 15.8148 12.8917 15.5022C12.9546 15.1896 13.109 14.9028 13.3351 14.678C13.5613 14.4533 13.8491 14.3007 14.1621 14.2397C14.475 14.1787 14.7991 14.2121 15.0931 14.3354C15.3871 14.4588 15.6378 14.6668 15.8135 14.9328C15.9892 15.1989 16.082 15.5112 16.08 15.83C16.08 16.041 16.0383 16.2498 15.9573 16.4446C15.8762 16.6394 15.7575 16.8162 15.6078 16.9649C15.4582 17.1136 15.2806 17.2313 15.0854 17.3111C14.8901 17.3909 14.681 17.4313 14.47 17.43ZM16.78 10.3C16.4599 10.2999 16.1471 10.2044 15.8815 10.0256C15.616 9.8469 15.4097 9.59306 15.2891 9.29653C15.1685 9 15.1391 8.67426 15.2045 8.36091C15.2699 8.04756 15.4273 7.76082 15.6565 7.53733C15.8856 7.31385 16.1762 7.16375 16.4911 7.10622C16.806 7.04869 17.1309 7.08633 17.4243 7.21435C17.7177 7.34236 17.9663 7.55493 18.1383 7.8249C18.3103 8.09488 18.398 8.40999 18.39 8.73001C18.3821 9.15087 18.2087 9.55167 17.9073 9.84555C17.606 10.1394 17.2009 10.3027 16.78 10.3Z" fill="#00FFFF"/>
<path d="M27.8702 17.16H22.4302L24.5702 21.44H30.0102L27.8702 17.16Z" fill="#00FFFF"/>
</svg>
