<svg width="123" height="22" viewBox="0 0 123 22" fill="none" xmlns="http://www.w3.org/2000/svg">
<path d="M50.5576 0.946289V21.5H45.8857V7.62402L44.0195 21.5H40.7061L38.7383 7.94141V21.5H34.0664V0.946289H40.9854C41.1885 2.18197 41.4043 3.6377 41.6328 5.31348L42.3691 10.5439L43.5879 0.946289H50.5576Z" fill="url(#paint0_linear_26_339)"/>
<path d="M63.7643 10.5693V14.6953C63.7643 16.2103 63.6881 17.3232 63.5358 18.0342C63.3834 18.7367 63.0576 19.3968 62.5582 20.0146C62.0589 20.624 61.4157 21.0768 60.6286 21.373C59.8499 21.6608 58.9528 21.8047 57.9371 21.8047C56.803 21.8047 55.8424 21.682 55.0553 21.4365C54.2682 21.1826 53.6546 20.806 53.2145 20.3066C52.7829 19.7988 52.4739 19.1895 52.2877 18.4785C52.1015 17.7591 52.0084 16.6842 52.0084 15.2539V10.9375C52.0084 9.37174 52.1777 8.14876 52.5163 7.26855C52.8548 6.38835 53.4642 5.68164 54.3444 5.14844C55.2246 4.61523 56.3502 4.34863 57.7213 4.34863C58.8724 4.34863 59.8584 4.52214 60.6793 4.86914C61.5088 5.20768 62.1478 5.65202 62.5963 6.20215C63.0449 6.75228 63.3496 7.31934 63.5104 7.90332C63.6797 8.4873 63.7643 9.37598 63.7643 10.5693ZM58.6354 9.2998C58.6354 8.43652 58.5888 7.89486 58.4957 7.6748C58.4026 7.44629 58.2038 7.33203 57.8991 7.33203C57.5944 7.33203 57.3913 7.44629 57.2897 7.6748C57.1881 7.89486 57.1373 8.43652 57.1373 9.2998V16.9043C57.1373 17.6999 57.1881 18.2204 57.2897 18.4658C57.3913 18.7028 57.5901 18.8213 57.8864 18.8213C58.1911 18.8213 58.3899 18.7113 58.483 18.4912C58.5846 18.2712 58.6354 17.7972 58.6354 17.0693V9.2998Z" fill="url(#paint1_linear_26_339)"/>
<path d="M75.6761 4.65332L73.2766 21.5H66.5862L64.0091 4.65332H68.5921L70.0266 16.9424C70.1367 16.0452 70.3229 13.8447 70.5852 10.3408C70.7376 8.38574 70.9069 6.48991 71.093 4.65332H75.6761Z" fill="url(#paint2_linear_26_339)"/>
<path d="M81.3417 0.946289V3.625H76.0605V0.946289H81.3417ZM81.3417 4.65332V21.5H76.0605V4.65332H81.3417Z" fill="url(#paint3_linear_26_339)"/>
<path d="M94.4214 13.375H87.7818V17.0186C87.7818 17.7803 87.8368 18.2712 87.9468 18.4912C88.0569 18.7113 88.2684 18.8213 88.5816 18.8213C88.9709 18.8213 89.2291 18.6774 89.356 18.3896C89.4914 18.0934 89.5591 17.5264 89.5591 16.6885V14.4668H94.4214V15.7109C94.4214 16.752 94.3537 17.5518 94.2183 18.1104C94.0914 18.6689 93.7867 19.2656 93.3043 19.9004C92.8218 20.5352 92.2082 21.0133 91.4634 21.335C90.7271 21.6481 89.8004 21.8047 88.6832 21.8047C87.5998 21.8047 86.6434 21.6481 85.814 21.335C84.9846 21.0218 84.3371 20.5944 83.8716 20.0527C83.4146 19.5026 83.0972 18.9017 82.9195 18.25C82.7418 17.5898 82.6529 16.6335 82.6529 15.3809V10.4678C82.6529 8.99512 82.8518 7.83561 83.2496 6.98926C83.6474 6.13444 84.299 5.48275 85.2046 5.03418C86.1102 4.57715 87.1513 4.34863 88.3277 4.34863C89.7665 4.34863 90.9514 4.6237 91.8824 5.17383C92.8218 5.71549 93.4778 6.43913 93.8502 7.34473C94.231 8.24186 94.4214 9.50716 94.4214 11.1406V13.375ZM89.2798 10.6328V9.40137C89.2798 8.52962 89.2333 7.9668 89.1402 7.71289C89.0471 7.45898 88.8567 7.33203 88.5689 7.33203C88.2134 7.33203 87.9934 7.44206 87.9087 7.66211C87.8241 7.8737 87.7818 8.45345 87.7818 9.40137V10.6328H89.2798Z" fill="url(#paint4_linear_26_339)"/>
<path d="M95.8723 0.946289H99.8713C102.453 0.946289 104.196 1.06478 105.102 1.30176C106.016 1.53874 106.71 1.92806 107.184 2.46973C107.658 3.01139 107.954 3.61654 108.072 4.28516C108.191 4.94531 108.25 6.2487 108.25 8.19531V15.3936C108.25 17.2386 108.161 18.4743 107.984 19.1006C107.814 19.7184 107.514 20.2051 107.082 20.5605C106.651 20.9076 106.117 21.153 105.483 21.2969C104.848 21.4323 103.891 21.5 102.613 21.5H95.8723V0.946289ZM101.217 4.46289V17.9834C101.987 17.9834 102.461 17.8311 102.639 17.5264C102.817 17.2132 102.905 16.3711 102.905 15V7.01465C102.905 6.08366 102.876 5.48698 102.817 5.22461C102.757 4.96224 102.622 4.77181 102.41 4.65332C102.199 4.52637 101.801 4.46289 101.217 4.46289Z" fill="url(#paint5_linear_26_339)"/>
<path d="M109.853 0.946289H115.185C116.87 0.946289 118.143 1.07747 119.007 1.33984C119.878 1.60221 120.581 2.13542 121.114 2.93945C121.647 3.73503 121.914 5.02148 121.914 6.79883C121.914 8.00065 121.723 8.83854 121.343 9.3125C120.97 9.78646 120.23 10.1504 119.121 10.4043C120.357 10.6836 121.195 11.1491 121.635 11.8008C122.075 12.444 122.295 13.4342 122.295 14.7715V16.6758C122.295 18.0638 122.134 19.0921 121.812 19.7607C121.499 20.4294 120.996 20.8864 120.302 21.1318C119.608 21.3773 118.186 21.5 116.036 21.5H109.853V0.946289ZM115.198 4.46289V9.0332C115.427 9.02474 115.604 9.02051 115.731 9.02051C116.256 9.02051 116.59 8.89355 116.734 8.63965C116.878 8.37728 116.95 7.63672 116.95 6.41797C116.95 5.77474 116.891 5.32617 116.772 5.07227C116.654 4.8099 116.497 4.64486 116.303 4.57715C116.116 4.50944 115.748 4.47135 115.198 4.46289ZM115.198 12.2324V17.9834C115.951 17.958 116.43 17.8395 116.633 17.6279C116.844 17.4163 116.95 16.8958 116.95 16.0664V14.1494C116.95 13.2692 116.857 12.736 116.671 12.5498C116.485 12.3636 115.994 12.2578 115.198 12.2324Z" fill="url(#paint6_linear_26_339)"/>
<path d="M20.6001 17.16C19.3714 19.0306 17.6378 20.5146 15.6001 21.44H23.3401L21.1901 17.16H20.6001Z" fill="#00FFFF"/>
<path d="M21.44 10.73C21.442 8.60936 20.8149 6.53578 19.6382 4.77157C18.4615 3.00736 16.7879 1.63179 14.8293 0.818889C12.8707 0.00598419 10.7149 -0.207735 8.63477 0.204769C6.55463 0.617272 4.64358 1.63746 3.14336 3.13628C1.64314 4.6351 0.621164 6.54521 0.206719 8.62496C-0.207725 10.7047 0.00398159 12.8607 0.815058 14.8201C1.62614 16.7795 3.00014 18.4543 4.76325 19.6327C6.52636 20.811 8.59936 21.44 10.72 21.44C12.1273 21.4413 13.5211 21.1653 14.8216 20.6276C16.1222 20.09 17.304 19.3013 18.2996 18.3067C19.2952 17.312 20.0849 16.1309 20.6238 14.8309C21.1626 13.5308 21.44 12.1373 21.44 10.73ZM3.06 8.73001C3.05802 8.41116 3.15076 8.0989 3.32646 7.83283C3.50216 7.56675 3.75291 7.35884 4.04692 7.23545C4.34093 7.11206 4.66496 7.07874 4.97792 7.13973C5.29089 7.20072 5.5787 7.35326 5.80486 7.57802C6.03102 7.80278 6.18536 8.08963 6.24829 8.40221C6.31123 8.71479 6.27994 9.03902 6.15838 9.33379C6.03682 9.62857 5.83047 9.88061 5.5655 10.058C5.30052 10.2353 4.98885 10.33 4.67 10.33C4.24473 10.33 3.83673 10.1618 3.53508 9.86199C3.23343 9.56221 3.06264 9.15527 3.06 8.73001ZM7.01 17.43C6.69115 17.43 6.37948 17.3353 6.1145 17.158C5.84953 16.9806 5.64318 16.7286 5.52162 16.4338C5.40006 16.139 5.36877 15.8148 5.43171 15.5022C5.49464 15.1896 5.64898 14.9028 5.87514 14.678C6.10131 14.4533 6.38911 14.3007 6.70208 14.2397C7.01505 14.1787 7.33907 14.2121 7.63308 14.3354C7.92709 14.4588 8.17784 14.6668 8.35354 14.9328C8.52924 15.1989 8.62198 15.5112 8.62 15.83C8.62 16.041 8.57829 16.2498 8.49726 16.4446C8.41623 16.6394 8.29748 16.8162 8.14784 16.9649C7.99821 17.1136 7.82064 17.2313 7.62537 17.3111C7.43009 17.3909 7.22096 17.4313 7.01 17.43ZM10.76 12.34C10.44 12.348 10.1249 12.2603 9.8549 12.0883C9.58493 11.9163 9.37236 11.6677 9.24434 11.3743C9.11633 11.0809 9.07868 10.756 9.13622 10.4411C9.19375 10.1263 9.34384 9.83565 9.56733 9.60647C9.79082 9.37729 10.0776 9.21993 10.3909 9.1545C10.7043 9.08906 11.03 9.11852 11.3265 9.23912C11.6231 9.35971 11.8769 9.56596 12.0556 9.83152C12.2344 10.0971 12.3299 10.4099 12.33 10.73C12.33 11.157 12.1604 11.5665 11.8584 11.8684C11.5565 12.1704 11.147 12.34 10.72 12.34H10.76ZM10.76 5.91001C10.4416 5.91001 10.1303 5.81558 9.86553 5.63867C9.60077 5.46176 9.39441 5.21031 9.27255 4.91612C9.1507 4.62194 9.11881 4.29822 9.18094 3.98591C9.24306 3.6736 9.3964 3.38673 9.62156 3.16156C9.84672 2.9364 10.1336 2.78306 10.4459 2.72094C10.7582 2.65882 11.0819 2.6907 11.3761 2.81256C11.6703 2.93442 11.9218 3.14077 12.0987 3.40554C12.2756 3.6703 12.37 3.98158 12.37 4.3C12.3701 4.51484 12.3271 4.72752 12.2437 4.92551C12.1603 5.12349 12.0382 5.30279 11.8844 5.45283C11.7306 5.60286 11.5484 5.72061 11.3484 5.79913C11.1484 5.87764 10.9348 5.91534 10.72 5.91001H10.76ZM14.47 17.43C14.1511 17.43 13.8395 17.3353 13.5745 17.158C13.3095 16.9806 13.1032 16.7286 12.9816 16.4338C12.8601 16.139 12.8288 15.8148 12.8917 15.5022C12.9546 15.1896 13.109 14.9028 13.3351 14.678C13.5613 14.4533 13.8491 14.3007 14.1621 14.2397C14.475 14.1787 14.7991 14.2121 15.0931 14.3354C15.3871 14.4588 15.6378 14.6668 15.8135 14.9328C15.9892 15.1989 16.082 15.5112 16.08 15.83C16.08 16.041 16.0383 16.2498 15.9573 16.4446C15.8762 16.6394 15.7575 16.8162 15.6078 16.9649C15.4582 17.1136 15.2806 17.2313 15.0854 17.3111C14.8901 17.3909 14.681 17.4313 14.47 17.43ZM16.78 10.3C16.4599 10.2999 16.1471 10.2044 15.8815 10.0256C15.616 9.8469 15.4097 9.59306 15.2891 9.29653C15.1685 9 15.1391 8.67426 15.2045 8.36091C15.2699 8.04756 15.4273 7.76082 15.6565 7.53733C15.8856 7.31385 16.1762 7.16375 16.4911 7.10622C16.806 7.04869 17.1309 7.08633 17.4243 7.21435C17.7177 7.34236 17.9663 7.55493 18.1383 7.8249C18.3103 8.09488 18.398 8.40999 18.39 8.73001C18.3821 9.15087 18.2087 9.55167 17.9073 9.84555C17.606 10.1394 17.2009 10.3027 16.78 10.3Z" fill="#00FFFF"/>
<path d="M27.8702 17.16H22.4302L24.5702 21.44H30.0102L27.8702 17.16Z" fill="#00FFFF"/>
<defs>
<linearGradient id="paint0_linear_26_339" x1="34" y1="11" x2="122" y2="11" gradientUnits="userSpaceOnUse">
<stop stop-color="#00FFFF"/>
<stop offset="1" stop-color="#FF00FF"/>
</linearGradient>
<linearGradient id="paint1_linear_26_339" x1="34" y1="11" x2="122" y2="11" gradientUnits="userSpaceOnUse">
<stop stop-color="#00FFFF"/>
<stop offset="1" stop-color="#FF00FF"/>
</linearGradient>
<linearGradient id="paint2_linear_26_339" x1="34" y1="11" x2="122" y2="11" gradientUnits="userSpaceOnUse">
<stop stop-color="#00FFFF"/>
<stop offset="1" stop-color="#FF00FF"/>
</linearGradient>
<linearGradient id="paint3_linear_26_339" x1="34" y1="11" x2="122" y2="11" gradientUnits="userSpaceOnUse">
<stop stop-color="#00FFFF"/>
<stop offset="1" stop-color="#FF00FF"/>
</linearGradient>
<linearGradient id="paint4_linear_26_339" x1="34" y1="11" x2="122" y2="11" gradientUnits="userSpaceOnUse">
<stop stop-color="#00FFFF"/>
<stop offset="1" stop-color="#FF00FF"/>
</linearGradient>
<linearGradient id="paint5_linear_26_339" x1="34" y1="11" x2="122" y2="11" gradientUnits="userSpaceOnUse">
<stop stop-color="#00FFFF"/>
<stop offset="1" stop-color="#FF00FF"/>
</linearGradient>
<linearGradient id="paint6_linear_26_339" x1="34" y1="11" x2="122" y2="11" gradientUnits="userSpaceOnUse">
<stop stop-color="#00FFFF"/>
<stop offset="1" stop-color="#FF00FF"/>
</linearGradient>
</defs>
</svg>
