<svg xmlns="http://www.w3.org/2000/svg" xmlns:xlink="http://www.w3.org/1999/xlink">
  <defs>
    <symbol id="search" viewBox="0 0 512 512">
       <path d="M456.69,421.39,362.6,327.3a173.81,173.81,0,0,0,34.84-104.58C397.44,126.38,319.06,48,222.72,48S48,126.38,48,222.72s78.38,174.72,174.72,174.72A173.81,173.81,0,0,0,327.3,362.6l94.09,94.09a25,25,0,0,0,35.3-35.3ZM97.92,222.72a124.8,124.8,0,1,1,124.8,124.8A124.95,124.95,0,0,1,97.92,222.72Z"/>
    </symbol>
    <symbol id="login" viewBox="0 0 32 32" enable-background="new 0 0 32 32" version="1.1" xml:space="preserve">
      <g>
        <circle cx="16" cy="16" fill="none" r="15" stroke-linejoin="round" stroke-miterlimit="10" stroke-width="2"/>
        <path d="M26,27L26,27   c0-5.523-4.477-10-10-10h0c-5.523,0-10,4.477-10,10v0" fill="none" stroke-linejoin="round" stroke-miterlimit="10" stroke-width="2"/>
        <circle cx="16" cy="11" fill="none" r="6" stroke-linejoin="round" stroke-miterlimit="10" stroke-width="2"/>
      </g>
    </symbol>
    <symbol id="slider-arrow" fill="#fff" viewBox="0 0 32 32" version="1.1">
      <path d="M8.489 31.975c-0.271 0-0.549-0.107-0.757-0.316-0.417-0.417-0.417-1.098 0-1.515l14.258-14.264-14.050-14.050c-0.417-0.417-0.417-1.098 0-1.515s1.098-0.417 1.515 0l14.807 14.807c0.417 0.417 0.417 1.098 0 1.515l-15.015 15.022c-0.208 0.208-0.486 0.316-0.757 0.316z">
      </path>
    </symbol>
    <symbol id="favorite" viewBox="0 0 64 64">
      <path d="M52,4H12a2,2,0,0,0-2,2V58a2,2,0,0,0,3.25,1.5615l18.75-15,18.75,15A2,2,0,0,0,54,58V6A2,2,0,0,0,52,4ZM50,53.8386l-16.75-13.4a1.9995,1.9995,0,0,0-2.499,0L14,53.8386V8H50Z" />
    </symbol>
    <symbol id="details" viewBox="0 0 20 20">
      <rect x="0" fill="none" width="20" height="20" />
      <g>
        <path fill="#fff" d="M5 10c0 1.1-.9 2-2 2s-2-.9-2-2 .9-2 2-2 2 .9 2 2zm12-2c-1.1 0-2 .9-2 2s.9 2 2 2 2-.9 2-2-.9-2-2-2zm-7 0c-1.1 0-2 .9-2 2s.9 2 2 2 2-.9 2-2-.9-2-2-2z" />
      </g>
    </symbol>
    <symbol id="close" fill="#fff" viewBox="0 0 24 24">
      <path d="M6.2253 4.81108C5.83477 4.42056 5.20161 4.42056 4.81108 4.81108C4.42056 5.20161 4.42056 5.83477 4.81108 6.2253L10.5858 12L4.81114 17.7747C4.42062 18.1652 4.42062 18.7984 4.81114 19.1889C5.20167 19.5794 5.83483 19.5794 6.22535 19.1889L12 13.4142L17.7747 19.1889C18.1652 19.5794 18.7984 19.5794 19.1889 19.1889C19.5794 18.7984 19.5794 18.1652 19.1889 17.7747L13.4142 12L19.189 6.2253C19.5795 5.83477 19.5795 5.20161 19.189 4.81108C18.7985 4.42056 18.1653 4.42056 17.7748 4.81108L12 10.5858L6.2253 4.81108Z"/>
    </symbol>
    <symbol id="burger" viewBox="0 0 24 24" fill="none">
      <g clip-path="url(#clip0_429_11066)">
        <path d="M3 6.00092H21M3 12.0009H21M3 18.0009H21" stroke="#fff" stroke-width="2.5" stroke-linecap="round" stroke-linejoin="round"/>
      </g>
      <defs>
        <clipPath id="clip0_429_11066">
          <rect width="24" height="24" fill="white" transform="translate(0 0.000915527)"/>
        </clipPath>
      </defs>
    </symbol>
    <symbol id="caret-bottom" enable-background="new 0 0 29 14" viewBox="0 0 29 14" xml:space="preserve">
      <polygon fill="#fff" points="0.15,0 14.5,14.35 28.85,0 "/>
    </symbol>
    <symbol id="arrow-right" enable-background="new 0 0 26 26" viewBox="0 0 26 26">
      <g>
        <polygon fill="#fff" points="2.049,0.58 -0.035,2.664 10.801,13.5 -0.035,24.336 2.049,26.42 14.969,13.5  "/>
        <polygon fill="#fff" points="13.049,0.58 10.965,2.664 21.801,13.5 10.965,24.336 13.049,26.42 25.969,13.5  "/>
      </g>
    </symbol>
    <symbol id="sort" viewBox="0 0 24 24">
      <path fill="#ffffffbf" d="M24,3.5c0,.83-.67,1.5-1.5,1.5H1.5c-.83,0-1.5-.67-1.5-1.5s.67-1.5,1.5-1.5H22.5c.83,0,1.5,.67,1.5,1.5ZM6.5,20H1.5c-.83,0-1.5,.67-1.5,1.5s.67,1.5,1.5,1.5H6.5c.83,0,1.5-.67,1.5-1.5s-.67-1.5-1.5-1.5ZM14.5,11H1.5c-.83,0-1.5,.67-1.5,1.5s.67,1.5,1.5,1.5H14.5c.83,0,1.5-.67,1.5-1.5s-.67-1.5-1.5-1.5Z"/>
    </symbol>
    <symbol id="star" style="enable-background:new 0 0 32 32;" version="1.1" viewBox="0 0 32 32" xml:space="preserve" xmlns="http://www.w3.org/2000/svg" xmlns:xlink="http://www.w3.org/1999/xlink">
      <g>
        <path fill="#fff" d="M7.347168,30c-0.2133789,0-0.4262695-0.0683594-0.6040039-0.2026367   c-0.315918-0.2397461-0.4609375-0.644043-0.3686523-1.0297852l2.3515625-9.8388672L1.4208984,13.746582   c-0.3193359-0.2265625-0.4770508-0.6186523-0.4038086-1.0029297c0.0737305-0.3847656,0.3647461-0.690918,0.7451172-0.7841797   l9.5288086-2.3256836l3.828125-7.1079102c0.3486328-0.6474609,1.4121094-0.6484375,1.7607422,0l3.8291016,7.1079102   l9.5288086,2.3256836c0.3803711,0.0932617,0.6713867,0.3994141,0.7451172,0.7841797   c0.0732422,0.3842773-0.0844727,0.7763672-0.4038086,1.0029297l-7.3051758,5.1821289l2.3515625,9.8388672   c0.0922852,0.3857422-0.0527344,0.7900391-0.3686523,1.0297852c-0.3173828,0.2397461-0.7451172,0.2680664-1.0913086,0.0756836   l-8.1650391-4.5561523l-8.1660156,4.5561523C7.6821289,29.9580078,7.5146484,30,7.347168,30z M15.9995117,23.171875   c0.1679688,0,0.3359375,0.0424805,0.4873047,0.1269531l6.6635742,3.7177734l-1.9790039-8.2802734   c-0.0947266-0.3969727,0.0610352-0.8120117,0.394043-1.0478516l6.0693359-4.3056641l-7.8325195-1.9116211   c-0.2749023-0.0673828-0.5087891-0.2480469-0.6430664-0.4975586l-3.1586914-5.8647461l-3.159668,5.8647461   c-0.1342773,0.2495117-0.3681641,0.4301758-0.6430664,0.4975586l-7.8325195,1.9116211l6.0693359,4.3056641   c0.3330078,0.2358398,0.4887695,0.6508789,0.394043,1.0478516l-1.9790039,8.2802734l6.6625977-3.7177734   C15.6635742,23.2143555,15.831543,23.171875,15.9995117,23.171875z"/>
      </g>
    </symbol>
    <symbol id="arrowRightSingle" viewBox="0 0 15 26" fill="none" xmlns="http://www.w3.org/2000/svg">
      <path d="M2.084 0L0 2.084L10.836 12.92L0 23.756L2.084 25.84L15.004 12.92L2.084 0Z" fill="#fff"/>
    </symbol>
  </defs>
</svg>
