<svg xmlns="http://www.w3.org/2000/svg"><defs><symbol id="боевик" viewBox="0 0 512 512" xmlns="http://www.w3.org/2000/svg"><path fill="#c1c1c1" d="M79.238 115.768l-28.51 67.863h406.15l-.273-67.862h-263.83v55.605h-15v-55.605h-16.68v55.605H146.1v-55.605h-17.434v55.605h-15v-55.605H79.238zm387.834 15.96v40.66h18.688v-40.66h-18.688zM56.768 198.63l20.566 32.015L28.894 406.5l101.68 7.174 21.54-97.996h115.74l14.664-80.252 174.55-3.873-.13-32.922H56.767zm206.672 37.22l-11.17 61.142h-96.05l12.98-59.05 12.53-.278-2.224 35.5 14.262 13.576 1.003-33.65 24.69-16.264 43.98-.976z"/></symbol><symbol id="комедия" viewBox="0 0 800 675" xmlns="http://www.w3.org/2000/svg"><path d="M534.76 39.852c-146.48 0-265.24-110.93-265.24 37.488 0 27.695 4.129 59.796 11.783 93.709 39.024-2.392 76.689-12.916 110.426-22.282 32.781-9.139 61.105-17.019 87.365-17.019 31.874 0 68.305 11.606 84.443 59.115.051-.151.101-.478.101-.478h117.879c1.133 4.607 1.913 7.301 1.913 11.153 0 25.857-27.241 46.83-60.827 46.83-21.879 0-41.014-8.863-51.764-22.156.755 7.528 1.158 15.61 1.158 24.346 0 26.663-3.374 56.925-9.769 89.026 33.788 10.902 60.224 39.427 67.248 75.682l-26.285-9.164c-8.182-20.721-25.127-36.784-45.847-44.136-10.6 44.69-26.713 91.897-47.585 136.863 8.233 1.687 16.541 2.669 25.001 2.669C681.24 501.498 800 225.759 800 77.315c0-148.444-118.735-37.463-265.24-37.463z"/><path d="M396.463 190.536c-3.576.982-7.201 1.989-10.877 2.996-36.129 9.819-77.016 19.487-120.321 19.487C118.76 213.044 0 102.19 0 250.609c0 148.393 118.76 424.132 265.265 424.132 146.455 0 265.215-275.739 265.215-424.132 0-100.079-53.98-82.304-134.017-60.073zM116.897 391.902c-1.108-2.316-1.914-6.823-1.914-10.725 0-25.807 27.242-46.452 60.853-46.452 33.612 0 60.853 20.519 60.853 46.452 0 3.801-.78 8.409-1.913 10.725H116.897zm148.368 187.594c-52.267 0-95.698-38.697-105.29-86.785h210.58c-9.642 48.088-53.048 86.785-105.29 86.785zm146.707-187.594H294.143c-1.133-2.316-1.913-6.823-1.913-10.725 0-25.807 27.241-46.452 60.853-46.452 33.611 0 60.852 20.519 60.852 46.452-.05 3.902-.805 8.459-1.963 10.725z"/></symbol><symbol id="детектив" viewBox="0 0 256 256" xmlns="http://www.w3.org/2000/svg"><path fill="none" d="M0 0h256v256H0z"/><path d="M216 180a36 36 0 01-71.1 8h-33.8a36 36 0 110-16h33.8a36 36 0 0171.1 8zm32-68h-27.8l-46.9-67a16.1 16.1 0 00-26.5.3L128 73.6l-18.8-28.3a16.1 16.1 0 00-26.5-.3l-46.9 67H8a8 8 0 000 16h240a8 8 0 000-16z"/></symbol><symbol id="драма" viewBox="0 0 801 676" xmlns="http://www.w3.org/2000/svg"><path fill-rule="evenodd" clip-rule="evenodd" d="M661.626 18.618c1.622-.448 3.235-.893 4.837-1.333 2.126-.59 4.234-1.178 6.323-1.76C749.33-5.807 800.48-20.062 800.48 77.358c0 145.458-114.108 413.273-256.557 423.811-2.88-.047-5.866-.071-8.961-.071-8.579 0-17.063-.946-25.433-2.756l-.073-.261c14.031-30.227 25.911-61.467 35.412-92.275 47.888-4.392 86.642-41.237 95.687-86.346h-75.1c4.1-24.906 6.239-48.419 6.239-69.65 0-5.851-.181-11.408-.527-16.702 0-.781.016-1.404.03-1.947.048-1.855.071-2.752-.661-5.697 0 0-.461-3.115-1.012-6.813h112.448c1.158-2.266 1.913-6.823 1.963-10.725 0-25.933-27.241-46.452-60.852-46.452-27.673 0-51.028 13.994-58.417 33.341l-1.331-5.178s-.05.328-.101.479C547.096 142.607 510.665 131 478.791 131c-26.26 0-54.584 7.88-87.365 17.02l-.799.222c-33.353 9.259-70.51 19.575-109.004 22.02C274.066 136.636 270 104.817 270 77.358c0-97.372 51.116-83.148 127.648-61.853 40.121 11.164 87.228 24.272 137.617 24.263 43.305 0 84.192-9.668 120.321-19.487 2.029-.555 4.042-1.111 6.04-1.663zm-91.09 206.846l.631 3.343v4.301a222.984 222.984 0 00-.631-7.644z"/><path fill-rule="evenodd" clip-rule="evenodd" d="M391.629 192.617c1.621-.447 3.233-.892 4.834-1.332 2.126-.59 4.234-1.178 6.323-1.76 76.544-21.332 127.694-35.587 127.694 61.833 0 148.393-118.76 424.132-265.215 424.132C118.76 675.49 0 399.751 0 251.358c0-97.372 51.116-83.148 127.648-61.853 40.121 11.164 87.228 24.272 137.617 24.263 43.305 0 84.192-9.668 120.321-19.487 2.03-.556 4.044-1.112 6.043-1.664zM234.706 346.225c0-3.902-.806-8.409-1.913-10.725H114.914c-1.133 2.316-1.914 6.923-1.914 10.725 0 25.932 27.242 46.452 60.853 46.452 33.612 0 60.853-20.645 60.853-46.452zM409.793 335.5c1.107 2.316 1.913 6.823 1.913 10.725 0 25.807-27.241 46.452-60.853 46.452-33.611 0-60.853-20.52-60.853-46.452 0-3.802.781-8.409 1.914-10.725h117.879zM264.98 450c-61.635 0-113.409 39.896-127.98 93.851l32.979-9.333c16.288-34.243 52.699-58.088 95.003-58.088 42.371 0 78.829 23.919 95.079 58.248L393 544c-14.516-54.03-66.329-94-128.02-94z"/></symbol><symbol id="семейный" xmlns="http://www.w3.org/2000/svg" xmlns:xlink="http://www.w3.org/1999/xlink" viewBox="0 0 256 256" xml:space="preserve"><path id="XMLID_4_" d="M223.9 123.1c6.4 0 11.5-5.2 11.5-11.6 0-6.4-5.2-11.6-11.5-11.6-6.4 0-11.6 5.2-11.6 11.6 0 6.4 5.2 11.6 11.6 11.6"/><path id="XMLID_3_" d="M144.5 59.4c9.1 0 16.5-7.4 16.5-16.5s-7.4-16.5-16.5-16.5S128 33.8 128 42.9s7.4 16.5 16.5 16.5"/><path id="XMLID_2_" d="M51.9 59.5c9.2 0 16.7-7.4 16.7-16.6 0-9.2-7.5-16.6-16.7-16.6s-16.7 7.4-16.7 16.6c-.1 9.2 7.4 16.6 16.7 16.6"/><path id="XMLID_1_" d="M208.2 222.9c0 3.7 3.1 6.8 6.8 6.8 3.7 0 6.8-3 6.8-6.8v-40.5h5.3v40.5c0 3.7 3 6.8 6.8 6.8 3.7 0 6.8-3 6.8-6.8v-75.8h5.2v25.7c0 2.8 2.3 5.1 5 5.1 2.8 0 5-2.3 5-5.1v-29.2c0-8.2-7.2-14.8-15.4-14.8H209l-10.1-1-13-45.5c-5.3-18.3-20.6-17.8-20.6-17.8H123s-15.3-.6-20.6 17.8l-6.8 23.8-6.8-23.8C83.5 64 68.2 64.6 68.2 64.6H35.5S20.1 64 14.9 82.4L1.7 128.2c-1.3 4.3.8 8.3 4.6 9.4 3.7 1.1 7.8-1.5 8.8-5l12.8-44.7h6.3l-18.7 77.4H32v55c0 4.5 3.6 8.2 8.2 8.2 4.5 0 8.2-3.7 8.2-8.2v-55h6.9v55c0 4.5 3.7 8.2 8.2 8.2 4.5 0 8.2-3.7 8.2-8.2v-55H88L69.5 87.9h6.2l12.8 44.7c.9 3 3.6 5.4 6.8 5.1 3.2.3 6.5-2.1 7.3-5.1l12.8-44.7h5.8v130.8c0 5.3 4.4 9.6 9.7 9.6 5.3 0 9.7-4.3 9.7-9.6v-74.4h7.1v74.4c0 5.3 4.3 9.6 9.7 9.6 5.3 0 9.7-4.3 9.7-9.6V87.9h6.3l11.9 43.2c.7 2.6 3.4 5.1 6.3 6l16.6 4.6v81.2z"/></symbol><symbol id="фэнтези" xmlns="http://www.w3.org/2000/svg" xmlns:xlink="http://www.w3.org/1999/xlink" viewBox="0 0 512 512" xml:space="preserve"><path class="st0" d="M461.046 372.68l24.61-2.894c-21.101-24.89-42.748-42.21-62.228-54.114l21.646-11.91-55.204-31.391 37.338-17.858-64.94-37.338 27.601-17.858-60.774-21.27c5.808-7.003 8.066-14.216 7.94-20.919l119.494-89.907c3.138-2.362 3.942-6.752 1.86-10.079l-3.621-5.746c-2.222-3.551-6.885-4.613-10.436-2.397l-56.798 35.633-3.816 19.13-6.451-52.652c-11.784-13.63-18.83-1.685-18.83-1.685l.168 54.658-39.002 26.142c-6.248-3.027-13.014-3.341-18.2.489L263.98 154.8s-41.868-12.302-67.847 6.094c-7.654 5.424-17.313 17.321-60.606 9.737-4.501-.79-33.208-3.872-59.174-11.33-.965-12.106-10.988-21.668-23.345-21.668-3.285 0-6.41.678-9.254 1.902-21.836-37.716-60.313-9.373-35.947 33.263l12.029 24.82 7.283 3.271 7.786 3.495c-.112 12.421 1.86 38.911 19.515 50.94-.923-2.74 2.859-23.401 9.31-38.002l3.02 1.356 12.134 5.312c.657 12.923 4.138 32.529 18.383 42.245-.762-2.306 1.964-17.991 6.864-31.187l23.862 10.45c1.965 11.365 6.57 24.065 17.167 31.292-.587-1.789.922-11.603 3.9-22.066l36.807 16.126a4.218 4.218 0 012.446 3.292l.783 12.854a4.193 4.193 0 01-3.159 4.613l-44.083 22.318c-7.039-8.639-13.036-19.458-13.064-21.366-6.57 8.876-6.263 20.717-4.404 30.209l-18.27 9.254c-8.464-10.666-16.034-26.77-15.866-29.216-10.023 11.547-8.73 29.076-6.402 40.483l-11.568 5.864s2.872 4.613 8.01 12.134c6.717 9.862 17.509 28.797 22.192 32.474C111.834 401.081 124.82 409 124.82 409l-7.269-26.861 20.675 7.129v-16.237c135.192-41.602 168.602 58.6 181.121 94.387H512c-8.555-22.249-40.47-79.963-50.954-94.738z"/></symbol><symbol id="фантастика" xmlns="http://www.w3.org/2000/svg" xmlns:xlink="http://www.w3.org/1999/xlink" viewBox="0 0 194.49 194.49" xml:space="preserve"><path d="M36.297 120.638l6.524 38.64 18.142-27.203h8.239c-6.275-18.55-10.994-33.706-14.26-45.684l-18.645 34.247zM139.539 86.39c-3.267 11.97-7.979 27.134-14.234 45.684h8.219l18.138 27.203 6.532-38.64-18.655-34.247zm-42.305 67.982c-7.296 0-13.19 5.903-13.19 13.185 0 7.27 13.19 26.934 13.19 26.934s13.19-19.652 13.19-26.934c.001-7.27-5.914-13.185-13.19-13.185zM97.24 48.25a60.011 60.011 0 00-22.075 4.194c-.126 28.042 7.46 61.049 11.281 85.045-4.803-15.039-20.06-49.854-20.787-80.258a62.251 62.251 0 00-8.893 6.65c2.382 17.058 15.072 55.499 25.627 85.659h29.721c10.568-30.172 23.248-68.615 25.624-85.667-10.762-9.671-24.945-15.623-40.498-15.623z"/><path d="M84.044 13.341c-5.072 7.834-7.582 17.991-8.48 29.304a68.954 68.954 0 0121.676-3.47c15.124 0 29.105 4.899 40.543 13.118C134.196 9.311 97.24 0 97.24 0S60.266 9.319 56.685 52.301a71.486 71.486 0 019.429-5.717c1.427-13.423 6.49-25.341 17.93-33.243z"/></symbol><symbol id="ужасы" xmlns="http://www.w3.org/2000/svg" xmlns:xlink="http://www.w3.org/1999/xlink" viewBox="0 0 263.998 263.998" xml:space="preserve"><path d="M244.472 84.316c-12.522-14.685-26.504-20.729-41.951-19.668-11.182.77-21.592 5.316-31.201 13.537-9.808-6.025-20.419-9.515-31.826-10.69a37.918 37.918 0 012.94-9.655c3.565-7.258 9.185-13.139 16.841-17.836a1785.528 1785.528 0 01-17.379-10.602c-16.767 8.358-25.845 21.246-27.292 39.619-7.837 1.759-15.143 4.626-21.911 8.7-9.45-7.917-19.589-12.288-30.418-13.026-15.281-1.029-29.355 4.937-42.216 19.415C6.648 99.188 0 118.456 0 140.501c-.007 6.57.696 13.041 2.116 19.323 4.736 23.497 15.879 42.66 33.576 57.073 15.912 13.173 30.835 18.587 44.716 17.512 7.294-.578 14.049-4.101 20.3-10.511 10.864 5.661 21.027 8.473 30.484 8.459 10.165-.012 20.868-3.045 32.098-9.176 6.422 6.901 13.37 10.669 20.842 11.274 14.226 1.108 29.509-4.239 45.764-17.366 18.037-14.544 28.919-33.815 32.789-57.219.863-5.8 1.313-11.646 1.313-17.497.002-22.941-6.487-42.755-19.526-58.057zM56.51 100.753l41.931 14.948c-4.54 9.086-11.102 13.631-19.656 13.631-2.622 0-5.069-.431-7.344-1.313-11.52-5.94-16.51-15.023-14.931-27.266zm98.811 90.437l-9.442-8.653-7.857 13.358c-3.497.35-6.822.529-9.967.529-4.538 0-8.904-.272-13.106-.803l-8.904-15.439-9.436 10.218c-5.063-2.8-9.436-6.038-13.105-9.708-9.085-8.553-13.802-18.52-14.154-29.874 2.966 1.745 7.658 3.568 14.101 5.473l10.969 14.055 9.735-10.16c4.883.724 9.522 1.155 13.887 1.315l11.023 11.857 9.973-12.322c3.669-.177 7.512-.53 11.531-1.041l10.234 10.476 11.274-14.672c6.117-1.392 11.544-2.885 16.264-4.459-2.974 17.309-13.987 30.587-33.02 39.85zm25.416-62.381c-2.277.876-4.806 1.313-7.599 1.313-8.388 0-14.942-4.553-19.648-13.637l42.183-14.929c1.407 12.222-3.576 21.307-14.936 27.253z"/></symbol><symbol id="триллер" viewBox="0 0 24 24" xmlns="http://www.w3.org/2000/svg"><path fill="none" d="M0 0h24v24H0z"/><path d="M4.342 1.408L22.373 19.44a1.5 1.5 0 01-2.121 2.122l-4.596-4.597L12.12 20.5 8 16.38V19a1 1 0 01-2 0v-4a1 1 0 00-1.993-.117L4 15v1a1 1 0 01-2 0V7.214a7.976 7.976 0 012.168-5.627l.174-.179z"/></symbol><symbol id="вестерн" viewBox="0 0 512 512" xmlns="http://www.w3.org/2000/svg"><path d="M199.117 111.268c-2.435.007-4.816.524-7.117 1.675-18.365 9.194-38.59 129.65-50.16 164.987 45.64 13.262 87.106 16.556 115.314 16.425 28.21-.13 68.652-3.635 112.97-16.49C358.53 242.48 338.34 122.123 320 112.943c-21.065-10.53-48.73 31.998-64 32-13.6.002-37.05-33.734-56.883-33.675zM224 160c11.53 40.5 9.107 74.724 0 96-9.107 21.276-32 11.235-32 0 25.333-6.927 26.21-35.5 32-96zm64 0c5.79 60.5 6.667 89.073 32 96 0 11.235-22.893 21.276-32 0s-11.53-55.5 0-96zM46.79 263.127c-17.5.4-24.138 17.83-14.79 40.873 11.088 30.345 58.972 96.774 112 96 24.103-.352 31.438-15.483 112-16 80.562-.517 87.88 15.648 112 16 53.017.774 100.907-65.655 112-96 13.006-32.066-4.934-53.25-40.016-32.84-21.85 11.926-44.06 17.898-65.984 24.48-.02 0-.044.024-.064.024v-.006c-45.8 13.756-87.924 17.486-116.754 17.615-28.83.13-72.027-3.357-119.145-17.548-21.897-6.618-44.09-12.59-66.027-24.565-9.866-5.74-18.374-8.19-25.22-8.033z"/></symbol><symbol id="музыка" viewBox="0 0 256 256" xmlns="http://www.w3.org/2000/svg"><path fill="none" d="M0 0h256v256H0z"/><path d="M212.9 25.7a8 8 0 00-6.8-1.5l-128 32A8 8 0 0072 64v110.1A36 36 0 1088 204v-93.8l112-28v59.9a36 36 0 1016 29.9V32a7.8 7.8 0 00-3.1-6.3z"/></symbol></defs></svg>