<svg width="31" height="22" fill="none" xmlns="http://www.w3.org/2000/svg"><path d="M20.6 17.16a11.84 11.84 0 01-5 4.28h7.74l-2.15-4.28h-.59z" fill="#0FF"/><path d="M21.44 10.73a10.72 10.72 0 10-10.72 10.71 10.709 10.709 0 0010.72-10.71zm-18.38-2a1.61 1.61 0 113.22-.02 1.61 1.61 0 01-3.22.02zm3.95 8.7a1.61 1.61 0 111.61-1.6 1.6 1.6 0 01-1.61 1.6zm3.75-5.09a1.61 1.61 0 111.098-.472 1.61 1.61 0 01-1.138.472h.04zm0-6.43a1.61 1.61 0 11.588-.11 1.61 1.61 0 01-.628.11h.04zm3.71 11.52a1.61 1.61 0 111.61-1.6 1.6 1.6 0 01-1.61 1.6zm2.31-7.13a1.61 1.61 0 111.61-1.57 1.6 1.6 0 01-1.61 1.57zm11.09 6.86h-5.44l2.14 4.28h5.44l-2.14-4.28z" fill="#0FF"/></svg>