<svg width="123" height="22" fill="none" xmlns="http://www.w3.org/2000/svg"><path d="M50.558.946V21.5h-4.672V7.624L44.019 21.5h-3.313L38.738 7.941V21.5h-4.672V.946h6.92c.203 1.236.418 2.692.647 4.367l.736 5.23L43.588.947h6.97z" fill="url(#paint0_linear_26_339)"/><path d="M63.764 10.57v4.125c0 1.515-.076 2.628-.228 3.34-.153.702-.478 1.362-.978 1.98a4.48 4.48 0 01-1.93 1.358c-.778.288-1.675.432-2.69.432-1.135 0-2.096-.123-2.883-.369-.787-.253-1.4-.63-1.84-1.13-.432-.507-.741-1.117-.927-1.828-.186-.719-.28-1.794-.28-3.224v-4.316c0-1.566.17-2.79.508-3.67.339-.88.948-1.586 1.828-2.12.88-.533 2.006-.8 3.377-.8 1.151 0 2.137.174 2.958.521.83.339 1.469.783 1.917 1.333.449.55.754 1.117.914 1.701.17.584.254 1.473.254 2.666zM58.635 9.3c0-.863-.046-1.405-.14-1.625-.092-.229-.291-.343-.596-.343s-.508.114-.61.343c-.1.22-.152.762-.152 1.625v7.604c0 .796.051 1.316.153 1.562.101.237.3.355.596.355.305 0 .504-.11.597-.33.102-.22.152-.694.152-1.422V9.3z" fill="url(#paint1_linear_26_339)"/><path d="M75.676 4.653l-2.4 16.847h-6.69L64.01 4.653h4.583l1.435 12.29c.11-.898.296-3.098.558-6.602.153-1.955.322-3.851.508-5.688h4.583z" fill="url(#paint2_linear_26_339)"/><path d="M81.342.946v2.679H76.06V.946h5.28zm0 3.707V21.5H76.06V4.653h5.28z" fill="url(#paint3_linear_26_339)"/><path d="M94.421 13.375h-6.64v3.644c0 .761.056 1.252.166 1.472.11.22.321.33.635.33.389 0 .647-.144.774-.431.135-.297.203-.864.203-1.701v-2.222h4.862v1.244c0 1.041-.067 1.84-.203 2.4-.127.558-.431 1.155-.914 1.79a4.524 4.524 0 01-1.84 1.434c-.737.313-1.664.47-2.78.47-1.084 0-2.04-.157-2.87-.47-.83-.313-1.477-.74-1.942-1.282a4.76 4.76 0 01-.953-1.803c-.177-.66-.266-1.616-.266-2.87v-4.912c0-1.473.199-2.632.597-3.479.397-.855 1.049-1.506 1.955-1.955.905-.457 1.946-.685 3.123-.685 1.438 0 2.623.275 3.554.825.94.541 1.596 1.265 1.968 2.17.381.898.571 2.163.571 3.797v2.234zm-5.141-2.742V9.4c0-.871-.047-1.434-.14-1.688-.093-.254-.283-.381-.571-.381-.356 0-.576.11-.66.33-.085.212-.127.791-.127 1.74v1.23h1.498z" fill="url(#paint4_linear_26_339)"/><path d="M95.872.946h4c2.581 0 4.324.119 5.23.356.914.237 1.608.626 2.082 1.168.474.541.77 1.147.888 1.815.119.66.178 1.964.178 3.91v7.199c0 1.845-.089 3.08-.266 3.707-.17.617-.47 1.104-.902 1.46-.431.347-.965.592-1.599.736-.635.135-1.592.203-2.87.203h-6.74V.946zm5.345 3.517v13.52c.77 0 1.244-.152 1.422-.457.178-.313.266-1.155.266-2.526V7.015c0-.931-.029-1.528-.088-1.79a.83.83 0 00-.407-.572c-.211-.127-.609-.19-1.193-.19z" fill="url(#paint5_linear_26_339)"/><path d="M109.853.946h5.332c1.685 0 2.958.131 3.822.394.871.262 1.574.795 2.107 1.6.533.795.8 2.081.8 3.859 0 1.202-.191 2.04-.571 2.513-.373.474-1.113.838-2.222 1.092 1.236.28 2.074.745 2.514 1.397.44.643.66 1.633.66 2.97v1.905c0 1.388-.161 2.416-.483 3.085a2.542 2.542 0 01-1.51 1.37c-.694.246-2.116.369-4.266.369h-6.183V.946zm5.345 3.517v4.57c.229-.008.406-.012.533-.012.525 0 .859-.127 1.003-.381.144-.263.216-1.003.216-2.222 0-.643-.059-1.092-.178-1.346-.118-.262-.275-.427-.469-.495-.187-.068-.555-.106-1.105-.114zm0 7.77v5.75c.753-.025 1.232-.143 1.435-.355.211-.212.317-.732.317-1.562V14.15c0-.88-.093-1.413-.279-1.6-.186-.185-.677-.291-1.473-.317z" fill="url(#paint6_linear_26_339)"/><path d="M20.6 17.16a11.84 11.84 0 01-5 4.28h7.74l-2.15-4.28h-.59z" fill="#0FF"/><path d="M21.44 10.73a10.72 10.72 0 10-10.72 10.71 10.709 10.709 0 0010.72-10.71zm-18.38-2a1.61 1.61 0 113.22-.02 1.61 1.61 0 01-3.22.02zm3.95 8.7a1.61 1.61 0 111.61-1.6 1.6 1.6 0 01-1.61 1.6zm3.75-5.09a1.61 1.61 0 111.098-.472 1.61 1.61 0 01-1.138.472h.04zm0-6.43a1.61 1.61 0 11.588-.11 1.61 1.61 0 01-.628.11h.04zm3.71 11.52a1.61 1.61 0 111.61-1.6 1.6 1.6 0 01-1.61 1.6zm2.31-7.13a1.61 1.61 0 111.61-1.57 1.6 1.6 0 01-1.61 1.57zm11.09 6.86h-5.44l2.14 4.28h5.44l-2.14-4.28z" fill="#0FF"/><defs><linearGradient id="paint0_linear_26_339" x1="34" y1="11" x2="122" y2="11" gradientUnits="userSpaceOnUse"><stop stop-color="#0FF"/><stop offset="1" stop-color="#F0F"/></linearGradient><linearGradient id="paint1_linear_26_339" x1="34" y1="11" x2="122" y2="11" gradientUnits="userSpaceOnUse"><stop stop-color="#0FF"/><stop offset="1" stop-color="#F0F"/></linearGradient><linearGradient id="paint2_linear_26_339" x1="34" y1="11" x2="122" y2="11" gradientUnits="userSpaceOnUse"><stop stop-color="#0FF"/><stop offset="1" stop-color="#F0F"/></linearGradient><linearGradient id="paint3_linear_26_339" x1="34" y1="11" x2="122" y2="11" gradientUnits="userSpaceOnUse"><stop stop-color="#0FF"/><stop offset="1" stop-color="#F0F"/></linearGradient><linearGradient id="paint4_linear_26_339" x1="34" y1="11" x2="122" y2="11" gradientUnits="userSpaceOnUse"><stop stop-color="#0FF"/><stop offset="1" stop-color="#F0F"/></linearGradient><linearGradient id="paint5_linear_26_339" x1="34" y1="11" x2="122" y2="11" gradientUnits="userSpaceOnUse"><stop stop-color="#0FF"/><stop offset="1" stop-color="#F0F"/></linearGradient><linearGradient id="paint6_linear_26_339" x1="34" y1="11" x2="122" y2="11" gradientUnits="userSpaceOnUse"><stop stop-color="#0FF"/><stop offset="1" stop-color="#F0F"/></linearGradient></defs></svg>