<svg xmlns="http://www.w3.org/2000/svg"><defs><symbol id="search" viewBox="0 0 512 512"><path d="M456.69 421.39L362.6 327.3a173.81 173.81 0 0034.84-104.58C397.44 126.38 319.06 48 222.72 48S48 126.38 48 222.72s78.38 174.72 174.72 174.72A173.81 173.81 0 00327.3 362.6l94.09 94.09a25 25 0 0035.3-35.3zM97.92 222.72a124.8 124.8 0 11124.8 124.8 124.95 124.95 0 01-124.8-124.8z"/></symbol><symbol id="login" viewBox="0 0 32 32" xml:space="preserve"><g fill="none" stroke-linejoin="round" stroke-miterlimit="10" stroke-width="2"><circle cx="16" cy="16" r="15"/><path d="M26 27c0-5.523-4.477-10-10-10S6 21.477 6 27"/><circle cx="16" cy="11" r="6"/></g></symbol><symbol id="slider-arrow" fill="#fff" viewBox="0 0 32 32"><path d="M8.489 31.975a1.073 1.073 0 01-.757-1.831L21.99 15.88 7.94 1.83c-.417-.417-.417-1.098 0-1.515s1.098-.417 1.515 0l14.807 14.807a1.074 1.074 0 010 1.515L9.247 31.659a1.078 1.078 0 01-.757.316z"/></symbol><symbol id="favorite" viewBox="0 0 64 64" fill="#fff"><path d="M52 4H12a2 2 0 00-2 2v52a2 2 0 003.25 1.562l18.75-15 18.75 15A2 2 0 0054 58V6a2 2 0 00-2-2zm-2 49.839l-16.75-13.4a2 2 0 00-2.499 0L14 53.839V8h36z"/></symbol><symbol id="details" viewBox="0 0 20 20"><path fill="none" d="M0 0h20v20H0z"/><path fill="#fff" d="M5 10c0 1.1-.9 2-2 2s-2-.9-2-2 .9-2 2-2 2 .9 2 2zm12-2c-1.1 0-2 .9-2 2s.9 2 2 2 2-.9 2-2-.9-2-2-2zm-7 0c-1.1 0-2 .9-2 2s.9 2 2 2 2-.9 2-2-.9-2-2-2z"/></symbol><symbol id="close" fill="#fff" viewBox="0 0 24 24"><path d="M6.225 4.811a1 1 0 00-1.414 1.414L10.586 12 4.81 17.775a1 1 0 101.414 1.414L12 13.414l5.775 5.775a1 1 0 001.414-1.414L13.414 12l5.775-5.775a1 1 0 00-1.414-1.414L12 10.586 6.225 4.81z"/></symbol><symbol id="burger" viewBox="0 0 24 24" fill="none"><g clip-path="url(#clip0_429_11066)"><path d="M3 6h18M3 12h18M3 18h18" stroke="#fff" stroke-width="2.5" stroke-linecap="round" stroke-linejoin="round"/></g><defs><clipPath id="clip0_429_11066"><path fill="#fff" d="M0 0h24v24H0z"/></clipPath></defs></symbol><symbol id="caret-bottom" viewBox="0 0 29 14" xml:space="preserve"><path fill="#fff" d="M.15 0L14.5 14.35 28.85 0z"/></symbol><symbol id="arrow-right" viewBox="0 0 26 26"><g fill="#fff"><path d="M2.049.58L-.035 2.664 10.801 13.5-.035 24.336l2.084 2.084 12.92-12.92z"/><path d="M13.049.58l-2.084 2.084L21.801 13.5 10.965 24.336l2.084 2.084 12.92-12.92z"/></g></symbol><symbol id="sort" viewBox="0 0 24 24"><path fill="#ffffffbf" d="M24 3.5c0 .83-.67 1.5-1.5 1.5h-21C.67 5 0 4.33 0 3.5S.67 2 1.5 2h21c.83 0 1.5.67 1.5 1.5zM6.5 20h-5c-.83 0-1.5.67-1.5 1.5S.67 23 1.5 23h5c.83 0 1.5-.67 1.5-1.5S7.33 20 6.5 20zm8-9h-13c-.83 0-1.5.67-1.5 1.5S.67 14 1.5 14h13c.83 0 1.5-.67 1.5-1.5s-.67-1.5-1.5-1.5z"/></symbol><symbol id="star" viewBox="0 0 32 32" xml:space="preserve" xmlns="http://www.w3.org/2000/svg" xmlns:xlink="http://www.w3.org/1999/xlink"><path fill="#fff" d="M7.347 30a1.002 1.002 0 01-.972-1.232l2.351-9.84-7.305-5.181a1 1 0 01.341-1.788l9.529-2.325 3.828-7.108c.349-.648 1.412-.649 1.76 0l3.83 7.108 9.529 2.325a1.001 1.001 0 01.341 1.788l-7.305 5.182 2.351 9.839a1.001 1.001 0 01-1.46 1.105L16 25.317l-8.166 4.556a.999.999 0 01-.487.127zM16 23.172a1 1 0 01.487.127l6.663 3.718-1.979-8.28a1 1 0 01.394-1.049l6.07-4.305-7.833-1.912a1 1 0 01-.643-.497L16 5.109l-3.16 5.865a1 1 0 01-.642.497l-7.833 1.912 6.07 4.305a1 1 0 01.394 1.048l-1.98 8.28 6.663-3.717a1 1 0 01.488-.127z"/></symbol><symbol id="arrowRightSingle" viewBox="0 0 15 26" fill="none" xmlns="http://www.w3.org/2000/svg"><path d="M2.084 0L0 2.084 10.836 12.92 0 23.756l2.084 2.084 12.92-12.92L2.084 0z" fill="#fff"/></symbol></defs></svg>